<?xml version="1.0" encoding="UTF-8"?>
<svg id="Layer_1" data-name="Layer 1" xmlns="http://www.w3.org/2000/svg" viewBox="0 0 500 500">
  <defs>
    <style>
      .cls-1 {
        fill: #ffba00;
        stroke-width: 0px;
      }
    </style>
  </defs>
  <path class="cls-1" d="m351.61,128.15c-4.75-57.76-53.13-103.15-112.11-103.15s-107.6,45.62-112.15,103.58c-40.72,16.93-69.35,57.08-69.35,103.92,0,62.13,50.37,112.5,112.5,112.5,9.13,0,18-1.1,26.5-3.15v112.28c0,6.55,5.31,11.87,11.87,11.87h60.26c6.55,0,11.87-5.31,11.87-11.87v-112.78c9.1,2.38,18.65,3.65,28.5,3.65,62.13,0,112.5-50.37,112.5-112.5,0-47.24-29.12-87.67-70.39-104.35Z"/>
</svg>