<?xml version="1.0" encoding="UTF-8"?>
<svg id="Layer_1" data-name="Layer 1" xmlns="http://www.w3.org/2000/svg" viewBox="0 0 500 500">
  <defs>
    <style>
      .cls-1 {
        fill: #fff;
        stroke-width: 0px;
      }
    </style>
  </defs>
  <path class="cls-1" d="m250.49,26.99c-121.78,0-220.5,98.72-220.5,220.5s98.72,220.5,220.5,220.5,220.5-98.72,220.5-220.5S372.27,26.99,250.49,26.99Zm24.13,357.94c0,6.42-2.8,8.19-12.97,8.19h-22.42c-10.16,0-12.96-1.77-12.96-8.19v-149.66c0-6.42,2.8-8.19,12.96-8.19h22.42c10.16,0,12.97,1.77,12.97,8.19v149.66Zm-23.63-202.48c-.24,0-.47-.01-.7-.02-.08,0-.16,0-.25,0-16.6,0-30.06-12.94-30.06-28.89,0-10.24,11.34-26.68,20.13-40.14,4.71-7.22,15.26-7.21,19.97,0,3.64,5.57,7.69,11.65,11.19,17.59,5.81,5.43,9.45,13.15,9.45,21.73,0,16.42-13.31,29.73-29.73,29.73Z"/>
</svg>