<?xml version="1.0" encoding="UTF-8"?>
<svg id="Layer_1" data-name="Layer 1" xmlns="http://www.w3.org/2000/svg" viewBox="0 0 500 500">
  <defs>
    <style>
      .cls-1 {
        fill: #fff;
        stroke-width: 0px;
      }
    </style>
  </defs>
  <path class="cls-1" d="m383.33,270.6c-10.7,16.38-24.49,36.38-24.49,48.84,0,19.42,16.38,35.15,36.57,35.15s36.57-15.74,36.57-35.15c0-12.46-13.67-32.46-24.36-48.83-5.73-8.78-18.56-8.78-24.3,0Z"/>
  <path class="cls-1" d="m441.31,89.99h-209.32v-13.05c0-17.65-14.31-31.95-31.95-31.95h-95.09c-17.65,0-31.95,14.31-31.95,31.95v13.05h-13.32c-11.42,0-20.68,9.26-20.68,20.68v23.65c0,11.42,9.26,20.68,20.68,20.68h13.32v248h-30.07c-8.8,0-15.93,7.13-15.93,15.93v33.15c0,8.8,7.13,15.93,15.93,15.93h219.15c8.8,0,15.93-7.13,15.93-15.93v-33.15c0-8.8-7.13-15.93-15.93-15.93h-30.07v-248h119.54l-13.69,44.51c-1.91,6.21,2.73,12.49,9.23,12.49h97.47c6.88,0,11.55-7,8.91-13.36l-18.13-43.64h6c11.42,0,20.68-9.26,20.68-20.68v-23.65c0-11.42-9.26-20.68-20.68-20.68Z"/>
</svg>