<?xml version="1.0" encoding="UTF-8"?>
<svg id="Layer_1" data-name="Layer 1" xmlns="http://www.w3.org/2000/svg" viewBox="0 0 500 500">
  <defs>
    <style>
      .cls-1 {
        fill: #ffba00;
        stroke-width: 0px;
      }
    </style>
  </defs>
  <path class="cls-1" d="m250.5,25c-121.78,0-220.5,98.72-220.5,220.5s98.72,220.5,220.5,220.5,220.5-98.72,220.5-220.5S372.28,25,250.5,25Zm49.32,187.62c0,7.1-1.96,9.06-9.06,9.06h-15.68c-7.1,0-9.06-1.96-9.06-9.06v-13.23c0-9.8-4.16-13.72-12.74-13.72s-12.74,3.68-12.74,13.72v11.27c0,3.18.98,4.41,4.41,4.41h4.41c7.1,0,9.06,1.96,9.06,9.06v6.12c0,7.1-1.96,9.06-8.57,9.06h-4.9c-3.43,0-4.41,1.22-4.41,4.41v3.92c0,3.18.98,4.41,4.41,4.41h4.41c7.1,0,9.06,1.96,9.06,9.06v6.12c0,7.1-1.96,9.06-8.57,9.06h-4.9c-3.43,0-4.41,1.22-4.41,4.41v11.27c0,9.8,4.16,13.72,12.74,13.72s12.74-3.92,12.74-13.72v-13.23c0-7.1,1.96-9.06,9.06-9.06h15.68c7.1,0,9.06,1.96,9.06,9.06v7.35c0,39.44-11.27,53.89-46.79,53.89s-47.28-14.45-47.28-53.89v-5.39c0-3.18-.98-4.41-4.41-4.41-6.37,0-8.33-1.96-8.33-9.06v-6.12c0-7.1,1.71-9.06,8.33-9.06,3.43,0,4.41-1.23,4.41-4.41v-3.92c0-3.18-.98-4.41-4.41-4.41-6.37,0-8.33-1.96-8.33-9.06v-6.12c0-7.1,1.71-9.06,8.33-9.06,3.43,0,4.41-1.22,4.41-4.41v-5.39c0-39.44,11.76-53.89,47.28-53.89s46.79,14.45,46.79,53.89v7.35Z"/>
</svg>