<?xml version="1.0" encoding="UTF-8"?>
<svg id="Layer_1" data-name="Layer 1" xmlns="http://www.w3.org/2000/svg" viewBox="0 0 500 500">
  <defs>
    <style>
      .cls-1 {
        fill: #fff;
        stroke-width: 0px;
      }
    </style>
  </defs>
  <path class="cls-1" d="m250.48,35.82c-96.38,0-174.51,75.1-174.51,167.73,0,59.43,65.24,154.86,116.24,233.01,27.34,41.89,88.58,41.9,115.93.02,51.04-78.15,116.86-173.6,116.86-233.03,0-92.64-78.13-167.73-174.51-167.73Zm-.36,240.47c-31.51,0-57.06-24.55-57.06-54.84,0-19.43,21.52-50.64,38.21-76.19,8.94-13.69,28.97-13.69,37.91,0,16.67,25.55,38,56.75,38,76.18,0,30.29-25.55,54.84-57.06,54.84Z"/>
</svg>